{"glyphs":{"0":{"ha":406,"x_min":0,"x_max":0,"o":"m 203 989 b 17 831 100 989 17 933 l 17 142 b 203 -17 17 39 100 -17 b 389 142 306 -17 389 39 l 389 831 b 203 989 389 933 306 989 z m 203 833 b 217 819 211 833 217 828 l 217 153 b 203 139 217 144 211 139 b 189 153 194 139 189 144 l 189 819 b 203 833 189 828 194 833 z "},"1":{"ha":269,"x_min":0,"x_max":0,"o":"m 249 972 l 124 972 b 8 861 97 904 82 869 l 8 732 l 76 732 l 76 0 l 249 0 z "},"2":{"ha":414,"x_min":0,"x_max":0,"o":"m 393 688 l 393 831 b 207 989 393 933 310 989 b 21 831 106 989 21 933 l 21 618 l 193 618 l 193 818 b 207 832 193 826 200 832 b 221 818 214 832 221 826 l 221 660 b 21 114 221 496 21 378 l 21 0 l 393 0 l 393 157 l 199 157 b 393 688 199 293 393 463 z "},"3":{"ha":406,"x_min":0,"x_max":0,"o":"m 389 142 l 389 374 b 338 492 389 449 347 483 b 336 494 338 492 336 493 b 338 497 336 496 338 497 b 389 614 347 506 389 540 l 389 829 b 203 989 389 933 306 989 b 17 829 100 989 17 933 l 17 619 l 189 619 l 189 817 b 203 832 189 826 194 832 b 217 818 211 832 217 826 l 217 599 b 192 572 217 585 206 572 l 97 572 l 97 417 l 192 417 b 217 390 206 417 217 404 l 217 154 b 203 140 217 146 211 140 b 189 154 194 140 189 146 l 189 354 l 17 354 l 17 142 b 203 -17 17 39 100 -17 b 389 142 307 -17 390 39 z "},"4":{"ha":428,"x_min":0,"x_max":0,"o":"m 390 972 l 194 972 l 8 372 l 8 219 l 218 219 l 218 0 l 390 0 l 390 219 l 419 219 l 419 375 l 390 375 z m 161 375 l 228 654 l 221 375 z "},"5":{"ha":414,"x_min":0,"x_max":0,"o":"m 264 719 b 193 697 235 719 213 713 l 193 815 l 372 815 l 372 972 l 21 972 l 21 447 l 193 447 l 193 549 b 207 564 193 557 199 564 b 221 549 215 564 221 557 l 221 154 b 207 139 221 146 215 139 b 193 154 199 139 193 146 l 193 353 l 21 353 l 21 142 b 207 -17 21 40 104 -17 b 393 143 310 -17 393 40 l 393 564 b 264 719 393 653 351 719 z "},"6":{"ha":406,"x_min":0,"x_max":0,"o":"m 217 818 l 217 644 l 389 644 l 389 831 b 203 989 389 933 306 989 b 17 831 100 989 17 933 l 17 143 b 203 -17 17 39 100 -17 b 389 143 306 -17 389 39 l 389 433 b 260 589 389 522 347 589 b 189 567 231 589 208 582 l 189 818 b 203 833 189 826 194 833 b 217 818 211 833 217 826 z m 203 432 b 217 417 211 432 217 425 l 217 156 b 203 140 217 147 211 140 b 189 156 194 140 189 147 l 189 417 b 203 432 189 425 194 432 z "},"7":{"ha":325,"x_min":0,"x_max":0,"o":"m 6 815 l 149 815 l 51 0 l 224 0 l 319 815 l 319 972 l 6 972 z "},"8":{"ha":406,"x_min":0,"x_max":0,"o":"m 203 989 b 17 831 100 989 17 935 l 17 614 b 68 497 17 540 58 506 b 69 494 68 497 69 496 b 68 492 69 493 68 492 b 17 375 58 483 17 449 l 17 142 b 203 -17 17 39 100 -17 b 389 142 306 -17 389 39 l 389 375 b 338 492 389 449 347 483 b 336 494 338 492 336 493 b 338 497 336 496 338 497 b 389 614 347 506 389 540 l 389 831 b 203 989 389 935 306 989 z m 203 832 b 217 817 211 832 217 825 l 217 588 b 203 572 217 579 211 572 b 189 588 194 572 189 579 l 189 817 b 203 832 189 825 194 832 z m 203 417 b 217 401 211 417 217 410 l 217 156 b 203 140 217 147 211 140 b 189 156 194 140 189 147 l 189 401 b 203 417 189 410 194 417 z "},"9":{"ha":406,"x_min":0,"x_max":0,"o":"m 203 989 b 17 829 100 989 17 933 l 17 539 b 146 383 17 450 58 383 b 217 406 175 383 197 390 l 217 154 b 203 139 217 146 211 139 b 189 154 194 139 189 146 l 189 328 l 17 328 l 17 142 b 203 -17 17 39 100 -17 b 389 142 306 -17 389 39 l 389 829 b 203 989 389 933 306 989 z m 203 832 b 217 817 211 832 217 825 l 217 556 b 203 540 217 547 211 540 b 189 556 194 540 189 547 l 189 817 b 203 832 189 825 194 832 z "}," ":{"ha":139,"x_min":0,"x_max":0,"o":""}," ":{"ha":139,"x_min":0,"x_max":0,"o":""},"A":{"ha":386,"x_min":0,"x_max":0,"o":"m 381 0 l 328 972 l 58 972 l 6 0 l 179 0 l 178 206 l 208 206 l 207 0 z m 178 361 l 190 768 l 196 768 l 208 361 z "},"Á":{"ha":386,"x_min":0,"x_max":0,"o":"m 381 0 l 328 972 l 58 972 l 6 0 l 179 0 l 178 206 l 208 206 l 207 0 z m 322 1125 l 79 1082 l 79 996 l 322 996 z m 178 361 l 190 768 l 196 768 l 208 361 z "},"Ä":{"ha":386,"x_min":0,"x_max":0,"o":"m 381 0 l 328 972 l 58 972 l 6 0 l 179 0 l 178 206 l 208 206 l 207 0 z m 26 1167 l 26 999 l 174 999 l 174 1167 z m 218 1167 l 218 999 l 365 999 l 365 1167 z m 178 361 l 190 768 l 196 768 l 208 361 z "},"B":{"ha":410,"x_min":0,"x_max":0,"o":"m 314 492 l 314 500 b 392 618 357 506 392 540 l 392 814 b 206 972 392 917 308 972 l 21 972 l 21 0 l 207 0 b 393 158 310 0 393 56 l 393 372 b 314 492 393 451 358 486 z m 221 401 l 221 172 b 204 156 221 163 214 156 l 193 156 l 193 418 l 204 418 b 221 401 214 418 221 411 z m 193 817 l 203 817 b 219 800 213 817 219 810 l 219 590 b 203 574 219 581 213 574 l 193 574 z "},"C":{"ha":406,"x_min":0,"x_max":0,"o":"m 203 989 b 17 831 100 989 17 933 l 17 142 b 203 -17 17 39 100 -17 b 389 142 306 -17 389 39 l 389 403 l 217 403 l 217 153 b 203 139 217 144 211 139 b 189 153 196 139 189 144 l 189 819 b 203 833 189 828 196 833 b 217 819 211 833 217 828 l 217 593 l 389 593 l 389 831 b 203 989 389 933 306 989 z "},"Ç":{"ha":406,"x_min":0,"x_max":0,"o":"m 203 989 b 17 831 100 989 17 933 l 17 142 b 151 -11 17 57 74 4 l 149 -21 l 149 -75 l 192 -74 b 228 -81 222 -74 228 -74 b 186 -87 228 -89 218 -87 b 124 -83 158 -87 126 -83 l 124 -160 b 192 -167 139 -162 158 -167 b 304 -79 249 -167 304 -154 b 251 -12 304 -33 279 -17 b 389 142 331 3 389 56 l 389 403 l 217 403 l 217 153 b 203 139 217 144 211 139 b 189 153 196 139 189 144 l 189 819 b 203 833 189 828 196 833 b 217 819 211 833 217 828 l 217 593 l 389 593 l 389 831 b 203 989 389 933 306 989 z "},"D":{"ha":410,"x_min":0,"x_max":0,"o":"m 21 0 l 207 0 b 393 158 310 0 393 56 l 393 814 b 207 972 393 917 310 972 l 21 972 z m 193 818 l 204 818 b 221 801 214 818 221 811 l 221 174 b 204 157 221 164 214 157 l 193 157 z "},"E":{"ha":279,"x_min":0,"x_max":0,"o":"m 193 156 l 193 414 l 268 414 l 268 569 l 193 569 l 193 817 l 267 817 l 267 972 l 21 972 l 21 0 l 276 0 l 276 156 z "},"É":{"ha":279,"x_min":0,"x_max":0,"o":"m 193 156 l 193 414 l 268 414 l 268 569 l 193 569 l 193 817 l 267 817 l 267 972 l 21 972 l 21 0 l 276 0 l 276 156 z m 267 1126 l 24 1083 l 24 997 l 267 997 z "},"Ë":{"ha":279,"x_min":0,"x_max":0,"o":"m 193 156 l 193 414 l 268 414 l 268 569 l 193 569 l 193 817 l 267 817 l 267 972 l 21 972 l 21 0 l 276 0 l 276 156 z m -24 1167 l -24 999 l 124 999 l 124 1167 z m 168 1167 l 168 999 l 315 999 l 315 1167 z "},"F":{"ha":279,"x_min":0,"x_max":0,"o":"m 263 414 l 263 569 l 193 569 l 193 817 l 276 817 l 276 972 l 21 972 l 21 0 l 193 0 l 193 414 z "},"G":{"ha":406,"x_min":0,"x_max":0,"o":"m 389 593 l 389 831 b 203 989 389 933 306 989 b 17 831 100 989 17 933 l 17 128 b 171 -17 17 33 83 -17 b 279 54 231 -17 268 25 l 306 0 l 389 0 l 389 569 l 203 569 l 203 408 l 233 408 l 233 404 b 217 369 233 404 217 393 l 217 153 b 203 139 217 144 211 139 b 189 153 194 139 189 144 l 189 819 b 203 833 189 828 194 833 b 217 819 211 833 217 828 l 217 593 z "},"H":{"ha":414,"x_min":0,"x_max":0,"o":"m 393 972 l 221 972 l 221 569 l 193 569 l 193 972 l 21 972 l 21 0 l 193 0 l 193 414 l 222 414 l 222 0 l 393 0 z "},"I":{"ha":214,"x_min":0,"x_max":0,"o":"m 21 972 l 21 0 l 193 0 l 193 972 z "},"Í":{"ha":214,"x_min":0,"x_max":0,"o":"m 21 972 l 21 0 l 193 0 l 193 972 z m 250 1126 l 7 1083 l 7 997 l 250 997 z "},"Ï":{"ha":214,"x_min":0,"x_max":0,"o":"m 21 972 l 21 0 l 193 0 l 193 972 z m -57 1167 l -57 999 l 90 999 l 90 1167 z m 135 1167 l 135 999 l 282 999 l 282 1167 z "},"J":{"ha":257,"x_min":0,"x_max":0,"o":"m 240 108 l 240 972 l 68 972 l 68 169 b 54 156 68 161 63 156 l 3 156 l 3 0 b 115 -17 11 -3 65 -17 b 240 108 185 -17 240 29 z "},"K":{"ha":411,"x_min":0,"x_max":0,"o":"m 21 0 l 193 0 l 193 446 b 199 451 193 450 196 451 b 204 446 203 451 204 449 l 233 0 l 406 0 l 363 471 b 324 529 360 496 347 521 b 324 538 319 531 319 536 b 363 589 347 546 360 565 l 403 972 l 231 972 l 204 615 b 199 610 204 613 201 610 b 193 615 196 610 193 613 l 193 972 l 21 972 z "},"L":{"ha":276,"x_min":0,"x_max":0,"o":"m 276 156 l 193 156 l 193 972 l 21 972 l 21 0 l 276 0 z "},"M":{"ha":569,"x_min":0,"x_max":0,"o":"m 344 972 l 289 485 b 285 479 289 482 288 479 b 281 485 282 479 281 482 l 225 972 l 21 972 l 21 0 l 185 0 l 185 358 b 188 363 185 361 186 363 b 190 358 189 363 190 361 l 233 0 l 336 0 l 379 358 b 382 363 379 361 381 363 b 385 358 383 363 385 361 l 385 0 l 549 0 l 549 972 z "},"N":{"ha":417,"x_min":0,"x_max":0,"o":"m 396 972 l 233 972 l 233 610 b 228 610 233 606 228 606 l 174 972 l 21 972 l 21 0 l 183 0 l 183 367 b 189 367 183 371 189 371 l 243 0 l 396 0 z "},"Ñ":{"ha":417,"x_min":0,"x_max":0,"o":"m 396 972 l 233 972 l 233 610 b 228 610 233 606 228 606 l 174 972 l 21 972 l 21 0 l 183 0 l 183 367 b 189 367 183 371 189 371 l 243 0 l 396 0 z m 275 981 b 406 1147 375 981 406 1071 l 308 1147 b 276 1096 308 1115 300 1096 b 158 1160 244 1096 233 1160 b 28 993 58 1160 28 1069 l 125 993 b 157 1044 125 1025 133 1044 b 275 981 189 1044 200 981 z "},"O":{"ha":406,"x_min":0,"x_max":0,"o":"m 203 989 b 17 831 100 989 17 933 l 17 142 b 203 -17 17 39 100 -17 b 389 142 306 -17 389 39 l 389 831 b 203 989 389 933 306 989 z m 217 819 l 217 153 b 203 139 217 144 211 139 b 189 153 194 139 189 144 l 189 819 b 203 833 189 828 194 833 b 217 819 211 833 217 828 z "},"Ó":{"ha":406,"x_min":0,"x_max":0,"o":"m 203 989 b 17 831 100 989 17 933 l 17 142 b 203 -17 17 39 100 -17 b 389 142 306 -17 389 39 l 389 831 b 203 989 389 933 306 989 z m 217 819 l 217 153 b 203 139 217 144 211 139 b 189 153 194 139 189 144 l 189 819 b 203 833 189 828 194 833 b 217 819 211 833 217 828 z m 329 1126 l 86 1083 l 86 997 l 329 997 z "},"Ö":{"ha":406,"x_min":0,"x_max":0,"o":"m 203 989 b 17 831 100 989 17 933 l 17 142 b 203 -17 17 39 100 -17 b 389 142 306 -17 389 39 l 389 831 b 203 989 389 933 306 989 z m 217 819 l 217 153 b 203 139 217 144 211 139 b 189 153 194 139 189 144 l 189 819 b 203 833 189 828 194 833 b 217 819 211 833 217 828 z m 33 1167 l 33 999 l 181 999 l 181 1167 z m 225 1167 l 225 999 l 372 999 l 372 1167 z "},"P":{"ha":410,"x_min":0,"x_max":0,"o":"m 207 972 l 21 972 l 21 0 l 193 0 l 193 124 l 207 124 b 393 283 310 124 393 179 l 393 814 b 207 972 393 917 310 972 z m 221 801 l 221 294 b 204 278 221 285 214 278 l 193 278 l 193 818 l 204 818 b 221 801 214 818 221 811 z "},"Q":{"ha":406,"x_min":0,"x_max":0,"o":"m 203 989 b 17 831 100 989 17 933 l 17 142 b 203 -17 17 39 100 -17 b 375 -153 203 -74 258 -153 l 375 18 l 344 18 b 289 31 319 18 301 24 b 389 142 346 42 389 71 l 389 831 b 203 989 389 933 306 989 z m 217 819 l 217 153 b 203 139 217 144 211 139 b 189 153 194 139 189 144 l 189 819 b 203 833 189 828 194 833 b 217 819 211 833 217 828 z "},"R":{"ha":411,"x_min":0,"x_max":0,"o":"m 21 0 l 193 0 l 193 292 b 199 297 193 296 196 297 b 204 292 203 297 204 294 l 233 0 l 406 0 l 364 326 b 342 360 360 357 342 360 l 342 368 b 393 486 356 375 393 411 l 393 814 b 207 972 393 917 310 972 l 21 972 z m 204 456 l 193 456 l 193 818 l 204 818 b 221 801 214 818 221 811 l 221 472 b 204 456 221 463 214 456 z "},"S":{"ha":394,"x_min":0,"x_max":0,"o":"m 197 -17 b 383 142 301 -17 383 39 l 383 331 b 233 586 383 492 292 543 b 182 653 204 607 182 625 l 182 818 b 197 832 182 826 189 832 b 213 818 206 832 213 826 l 213 633 l 383 633 l 383 831 b 197 989 383 935 300 989 b 11 831 94 989 11 933 l 11 682 b 139 447 11 536 82 489 b 211 336 178 418 211 390 l 211 154 b 197 140 211 146 206 140 b 183 154 189 140 183 146 l 183 364 l 11 364 l 11 142 b 197 -17 11 38 93 -17 z "},"T":{"ha":339,"x_min":0,"x_max":0,"o":"m 339 972 l 0 972 l 0 815 l 83 815 l 83 0 l 256 0 l 256 815 l 339 815 z "},"U":{"ha":406,"x_min":0,"x_max":0,"o":"m 217 972 l 217 156 b 203 140 217 147 211 140 b 189 156 194 140 189 147 l 189 972 l 17 972 l 17 142 b 203 -17 17 39 99 -17 b 389 142 307 -17 389 39 l 389 972 z "},"Ú":{"ha":406,"x_min":0,"x_max":0,"o":"m 217 972 l 217 156 b 203 140 217 147 211 140 b 189 156 194 140 189 147 l 189 972 l 17 972 l 17 142 b 203 -17 17 39 99 -17 b 389 142 307 -17 389 39 l 389 972 z m 329 1126 l 86 1083 l 86 997 l 329 997 z "},"Ü":{"ha":406,"x_min":0,"x_max":0,"o":"m 217 972 l 217 156 b 203 140 217 147 211 140 b 189 156 194 140 189 147 l 189 972 l 17 972 l 17 142 b 203 -17 17 39 99 -17 b 389 142 307 -17 389 39 l 389 972 z m 33 1167 l 33 999 l 181 999 l 181 1167 z m 225 1167 l 225 999 l 372 999 l 372 1167 z "},"V":{"ha":392,"x_min":0,"x_max":0,"o":"m 65 0 l 326 0 l 386 972 l 222 972 l 200 254 b 196 250 200 251 199 250 b 192 254 193 250 192 251 l 169 972 l 6 972 z "},"W":{"ha":563,"x_min":0,"x_max":0,"o":"m 285 390 l 313 0 l 518 0 l 557 972 l 392 972 l 381 442 b 375 442 381 438 375 438 l 342 972 l 221 972 l 188 442 b 182 442 188 438 182 438 l 171 972 l 6 972 l 44 0 l 250 0 l 278 390 b 285 390 278 394 285 394 z "},"X":{"ha":425,"x_min":0,"x_max":0,"o":"m 42 472 l 6 0 l 178 0 l 207 432 b 213 438 207 435 208 438 b 218 432 217 438 218 435 l 247 0 l 419 0 l 383 472 b 346 517 382 494 361 517 b 346 525 340 517 340 525 b 383 567 361 525 382 543 l 419 972 l 247 972 l 218 601 b 213 596 218 599 217 596 b 207 601 208 596 207 599 l 178 972 l 6 972 l 42 567 b 79 525 43 543 64 525 b 79 517 85 525 85 517 b 42 472 64 517 43 494 z "},"Y":{"ha":386,"x_min":0,"x_max":0,"o":"m 189 378 l 172 972 l 0 972 l 28 396 b 100 218 33 258 78 232 b 107 206 104 215 107 213 l 107 0 l 279 0 l 279 206 b 286 218 279 213 282 215 b 358 396 308 232 353 258 l 386 972 l 214 972 l 197 378 b 193 374 197 375 196 374 b 189 378 190 374 189 375 z "},"Z":{"ha":289,"x_min":0,"x_max":0,"o":"m 279 972 l 10 972 l 10 815 l 125 815 l 8 156 l 8 0 l 281 0 l 281 157 l 181 157 l 279 817 z "},"a":{"ha":396,"x_min":0,"x_max":0,"o":"m 199 792 b 19 604 90 792 19 729 l 19 522 l 185 522 l 185 618 b 199 636 185 628 189 636 b 213 618 208 636 213 628 l 213 478 b 154 486 213 478 197 486 b 14 300 68 486 14 417 l 14 174 b 149 -14 14 71 46 -14 b 261 71 211 -14 247 33 l 281 0 l 378 0 l 378 607 b 199 792 378 729 311 792 z m 185 160 l 185 336 b 199 354 185 347 188 354 l 213 354 l 213 160 b 199 142 213 149 208 142 b 185 160 189 142 185 149 z "},"á":{"ha":396,"x_min":0,"x_max":0,"o":"m 199 792 b 19 604 90 792 19 729 l 19 522 l 185 522 l 185 618 b 199 636 185 628 189 636 b 213 618 208 636 213 628 l 213 478 b 154 486 213 478 197 486 b 14 300 68 486 14 417 l 14 174 b 149 -14 14 71 46 -14 b 261 71 211 -14 247 33 l 281 0 l 378 0 l 378 607 b 199 792 378 729 311 792 z m 185 160 l 185 336 b 199 354 185 347 188 354 l 213 354 l 213 160 b 199 142 213 149 208 142 b 185 160 189 142 185 149 z m 324 946 l 81 903 l 81 817 l 324 817 z "},"ä":{"ha":396,"x_min":0,"x_max":0,"o":"m 199 792 b 19 604 90 792 19 729 l 19 522 l 185 522 l 185 618 b 199 636 185 628 189 636 b 213 618 208 636 213 628 l 213 478 b 154 486 213 478 197 486 b 14 300 68 486 14 417 l 14 174 b 149 -14 14 71 46 -14 b 261 71 211 -14 247 33 l 281 0 l 378 0 l 378 607 b 199 792 378 729 311 792 z m 185 160 l 185 336 b 199 354 185 347 188 354 l 213 354 l 213 160 b 199 142 213 149 208 142 b 185 160 189 142 185 149 z m 32 989 l 32 821 l 179 821 l 179 989 z m 224 989 l 224 821 l 371 821 l 371 989 z "},"b":{"ha":401,"x_min":0,"x_max":0,"o":"m 21 989 l 21 0 l 118 0 l 138 71 b 250 -14 151 33 188 -14 b 385 174 353 -14 385 71 l 385 606 b 244 792 385 708 331 792 b 199 785 225 792 210 789 b 192 790 199 785 192 782 l 192 989 z m 186 160 l 186 660 l 200 660 b 214 642 211 660 214 653 l 214 160 b 200 142 214 149 210 142 b 186 160 190 142 186 149 z "},"c":{"ha":389,"x_min":0,"x_max":0,"o":"m 208 328 l 210 160 b 196 142 210 150 206 142 b 182 160 186 142 182 150 l 182 618 b 196 636 182 628 186 636 b 210 618 206 636 210 628 l 208 464 l 375 464 l 375 590 b 196 792 375 729 308 792 b 17 607 83 792 17 729 l 17 171 b 196 -14 17 49 83 -14 b 375 188 308 -14 375 49 l 375 328 z "},"ç":{"ha":389,"x_min":0,"x_max":0,"o":"m 208 328 l 210 160 b 196 142 210 150 206 142 b 182 160 186 142 182 150 l 182 618 b 196 636 182 628 186 636 b 210 618 206 636 210 628 l 208 464 l 375 464 l 375 590 b 196 792 375 729 308 792 b 17 607 83 792 17 729 l 17 171 b 147 -10 17 67 65 7 l 144 -21 l 144 -75 l 188 -74 b 224 -81 218 -74 224 -74 b 182 -87 224 -89 214 -87 b 119 -83 154 -87 122 -83 l 119 -160 b 188 -167 135 -162 154 -167 b 300 -79 244 -167 300 -154 b 235 -11 300 -26 267 -12 b 375 188 324 3 375 65 l 375 328 z "},"d":{"ha":397,"x_min":0,"x_max":0,"o":"m 381 989 l 210 989 l 210 790 b 203 785 210 782 203 785 b 157 792 192 789 176 792 b 17 606 71 792 17 708 l 17 174 b 151 -14 17 71 49 -14 b 264 71 214 -14 250 33 l 283 0 l 381 0 z m 201 660 l 215 660 l 215 160 b 201 142 215 149 211 142 b 188 160 192 142 188 149 l 188 642 b 201 660 188 653 190 660 z "},"e":{"ha":397,"x_min":0,"x_max":0,"o":"m 199 -14 b 375 174 315 -14 375 49 l 375 271 l 213 271 l 213 160 b 199 142 213 150 208 142 b 185 160 189 142 185 150 l 185 307 l 375 307 b 381 493 375 307 381 390 l 381 606 b 199 792 381 707 315 792 b 17 606 82 792 17 707 l 17 171 b 199 -14 17 49 86 -14 z m 185 618 b 199 636 185 629 189 636 b 213 618 208 636 213 629 l 213 439 l 185 439 z "},"é":{"ha":397,"x_min":0,"x_max":0,"o":"m 199 -14 b 375 174 315 -14 375 49 l 375 271 l 213 271 l 213 160 b 199 142 213 150 208 142 b 185 160 189 142 185 150 l 185 307 l 375 307 b 381 493 375 307 381 390 l 381 606 b 199 792 381 707 315 792 b 17 606 82 792 17 707 l 17 171 b 199 -14 17 49 86 -14 z m 185 618 b 199 636 185 629 189 636 b 213 618 208 636 213 629 l 213 439 l 185 439 z m 329 946 l 86 903 l 86 817 l 329 817 z "},"ë":{"ha":397,"x_min":0,"x_max":0,"o":"m 199 -14 b 375 174 315 -14 375 49 l 375 271 l 213 271 l 213 160 b 199 142 213 150 208 142 b 185 160 189 142 185 150 l 185 307 l 375 307 b 381 493 375 307 381 390 l 381 606 b 199 792 381 707 315 792 b 17 606 82 792 17 707 l 17 171 b 199 -14 17 49 86 -14 z m 185 618 b 199 636 185 629 189 636 b 213 618 208 636 213 629 l 213 439 l 185 439 z m 26 989 l 26 821 l 174 821 l 174 989 z m 218 989 l 218 821 l 365 821 l 365 989 z "},"f":{"ha":258,"x_min":0,"x_max":0,"o":"m 204 0 l 204 594 l 254 594 l 254 778 l 204 778 l 204 818 b 218 832 204 826 210 832 l 256 832 l 256 972 b 179 989 256 972 233 989 b 32 864 96 989 32 943 l 32 778 l 3 778 l 3 594 l 32 594 l 32 0 z "},"g":{"ha":392,"x_min":0,"x_max":0,"o":"m 196 636 b 210 618 206 636 210 628 l 210 185 b 196 167 210 175 206 167 b 182 185 186 167 182 175 l 182 618 b 196 636 182 628 186 636 z m 196 -167 b 375 -150 243 -167 350 -156 l 375 4 l 140 4 b 122 17 129 4 122 8 b 135 29 122 25 129 29 l 138 29 b 375 240 264 29 375 93 l 375 590 b 232 789 375 714 322 776 b 268 804 232 801 243 804 b 375 801 314 804 351 803 l 375 975 b 267 978 375 975 324 978 b 139 863 183 978 139 928 b 157 793 139 825 149 806 l 156 789 b 17 607 68 775 17 714 l 17 213 b 133 92 17 139 65 92 l 133 85 b 17 -24 92 85 17 65 b 196 -167 17 -118 83 -167 z "},"h":{"ha":419,"x_min":0,"x_max":0,"o":"m 193 0 l 193 618 b 207 636 193 628 197 636 b 222 618 218 636 222 628 l 222 0 l 399 0 l 399 628 b 282 792 399 731 374 792 b 175 722 214 792 175 742 b 193 929 175 751 193 796 l 193 989 l 21 989 l 21 0 z "},"i":{"ha":206,"x_min":0,"x_max":0,"o":"m 17 778 l 17 0 l 189 0 l 189 778 z m 17 989 l 17 811 l 189 811 l 189 989 z "},"í":{"ha":206,"x_min":0,"x_max":0,"o":"m 17 778 l 17 0 l 189 0 l 189 778 z m 3 817 l 218 817 l 218 946 l 3 903 z "},"ï":{"ha":228,"x_min":0,"x_max":0,"o":"m 28 778 l 28 0 l 200 0 l 200 778 z m -56 988 l -56 819 l 92 819 l 92 988 z m 136 988 l 136 819 l 283 819 l 283 988 z "},"j":{"ha":207,"x_min":0,"x_max":0,"o":"m 43 -167 b 190 -42 126 -167 190 -121 l 190 778 l 18 778 l 18 -10 b 4 -24 18 -18 13 -24 l -47 -24 l -47 -150 b 43 -167 -47 -150 -25 -167 z m 15 989 l 15 794 l 193 794 l 193 989 z "},"k":{"ha":406,"x_min":0,"x_max":0,"o":"m 363 388 b 324 446 360 413 347 438 b 324 454 319 447 319 453 b 363 506 347 463 360 482 l 406 778 l 233 778 l 204 532 b 199 526 204 529 201 526 b 193 532 196 526 193 529 l 193 989 l 21 989 l 21 0 l 193 0 l 193 363 b 199 368 193 367 196 368 b 204 363 204 368 204 363 l 233 0 l 406 0 z "},"l":{"ha":213,"x_min":0,"x_max":0,"o":"m 21 989 l 21 0 l 192 0 l 192 989 z "},"m":{"ha":621,"x_min":0,"x_max":0,"o":"m 268 792 b 147 704 210 792 161 749 l 136 778 l 21 778 l 21 0 l 193 0 l 193 618 b 208 636 193 628 197 636 b 222 618 218 636 222 628 l 222 0 l 399 0 l 399 618 b 414 636 399 628 403 636 b 428 618 424 636 428 628 l 428 0 l 604 0 l 604 656 b 499 792 604 725 569 792 b 385 715 446 792 407 761 b 268 792 367 764 329 792 z "},"n":{"ha":415,"x_min":0,"x_max":0,"o":"m 268 792 b 147 704 210 792 161 749 l 136 778 l 21 778 l 21 0 l 193 0 l 193 618 b 208 636 193 628 197 636 b 222 618 218 636 222 628 l 222 0 l 399 0 l 399 628 b 268 792 399 731 360 792 z "},"ñ":{"ha":415,"x_min":0,"x_max":0,"o":"m 268 792 b 147 704 210 792 161 749 l 136 778 l 21 778 l 21 0 l 193 0 l 193 618 b 208 636 193 628 197 636 b 222 618 218 636 222 628 l 222 0 l 399 0 l 399 628 b 268 792 399 731 360 792 z m 275 807 b 406 974 375 807 406 897 l 308 974 b 276 922 308 942 300 922 b 158 986 244 922 233 986 b 28 819 58 986 28 896 l 125 819 b 157 871 125 851 133 871 b 275 807 189 871 200 807 z "},"o":{"ha":392,"x_min":0,"x_max":0,"o":"m 196 792 b 17 607 83 792 17 729 l 17 171 b 196 -14 17 49 83 -14 b 375 188 308 -14 375 49 l 375 590 b 196 792 375 729 308 792 z m 210 618 l 210 160 b 196 142 210 150 206 142 b 182 160 186 142 182 150 l 182 618 b 196 636 182 628 186 636 b 210 618 206 636 210 628 z "},"ó":{"ha":392,"x_min":0,"x_max":0,"o":"m 196 792 b 17 607 83 792 17 729 l 17 171 b 196 -14 17 49 83 -14 b 375 188 308 -14 375 49 l 375 590 b 196 792 375 729 308 792 z m 210 618 l 210 160 b 196 142 210 150 206 142 b 182 160 186 142 182 150 l 182 618 b 196 636 182 628 186 636 b 210 618 206 636 210 628 z m 329 946 l 86 903 l 86 817 l 329 817 z "},"ö":{"ha":392,"x_min":0,"x_max":0,"o":"m 196 792 b 17 607 83 792 17 729 l 17 171 b 196 -14 17 49 83 -14 b 375 188 308 -14 375 49 l 375 590 b 196 792 375 729 308 792 z m 210 618 l 210 160 b 196 142 210 150 206 142 b 182 160 186 142 182 150 l 182 618 b 196 636 182 628 186 636 b 210 618 206 636 210 628 z m 31 989 l 31 821 l 178 821 l 178 989 z m 222 989 l 222 821 l 369 821 l 369 989 z "},"p":{"ha":401,"x_min":0,"x_max":0,"o":"m 250 792 b 138 707 188 792 151 744 l 118 778 l 21 778 l 21 -167 l 192 -167 l 192 -12 b 199 -7 192 -4 199 -7 b 244 -14 210 -11 225 -14 b 385 172 331 -14 385 69 l 385 604 b 250 792 385 707 353 792 z m 200 636 b 214 618 210 636 214 629 l 214 136 b 200 118 214 125 211 118 l 186 118 l 186 618 b 200 636 186 629 190 636 z "},"q":{"ha":401,"x_min":0,"x_max":0,"o":"m 153 792 b 17 604 50 792 17 707 l 17 172 b 157 -14 17 69 71 -14 b 203 -7 176 -14 192 -11 b 210 -12 203 -7 210 -4 l 210 -167 l 381 -167 l 381 778 l 283 778 l 264 707 b 153 792 250 744 215 792 z m 201 636 b 215 618 211 636 215 629 l 215 118 l 201 118 b 188 136 190 118 188 125 l 188 618 b 201 636 188 629 192 636 z "},"r":{"ha":268,"x_min":0,"x_max":0,"o":"m 225 786 b 151 696 172 786 158 740 l 136 778 l 21 778 l 21 0 l 193 0 l 193 501 b 244 585 193 565 213 585 b 265 583 258 585 265 583 l 265 775 b 225 786 265 775 250 786 z "},"s":{"ha":386,"x_min":0,"x_max":0,"o":"m 185 535 l 185 618 b 199 636 185 628 189 636 b 213 618 208 636 213 628 l 213 506 l 372 506 l 372 604 b 193 792 372 729 297 792 b 14 607 81 792 14 735 l 14 596 b 126 356 14 450 24 414 b 201 224 196 317 201 292 l 201 160 b 188 142 201 150 197 142 b 174 160 178 142 174 150 l 174 299 l 14 299 l 14 174 b 193 -14 14 49 85 -14 b 372 171 306 -14 372 49 l 372 185 b 260 446 372 314 375 378 b 185 535 222 468 185 490 z "},"ß":{"ha":410,"x_min":0,"x_max":0,"o":"m 21 814 l 21 0 l 193 0 l 193 560 l 232 560 l 232 554 b 219 529 225 551 219 542 l 219 456 b 206 439 219 446 214 439 l 206 283 b 221 267 214 283 221 276 l 221 -18 b 204 -35 221 -28 214 -35 l 176 -35 l 176 -167 l 219 -167 b 393 7 322 -167 393 -137 l 393 238 b 314 357 393 317 358 351 l 314 364 b 392 483 357 369 392 406 l 392 711 l 193 711 l 193 801 b 206 817 193 808 196 817 l 233 817 l 233 969 b 181 972 219 971 199 972 b 21 814 92 972 21 917 z "},"t":{"ha":269,"x_min":0,"x_max":0,"o":"m 190 -17 b 267 0 244 -17 267 0 l 267 142 l 229 142 b 215 156 221 142 215 147 l 215 594 l 265 594 l 265 778 l 215 778 l 215 892 l 157 892 l 0 739 l 0 594 l 43 594 l 43 108 b 190 -17 43 29 107 -17 z "},"u":{"ha":415,"x_min":0,"x_max":0,"o":"m 147 -14 b 268 74 206 -14 254 29 l 279 0 l 394 0 l 394 778 l 222 778 l 222 160 b 207 142 222 150 218 142 b 193 160 197 142 193 150 l 193 778 l 17 778 l 17 150 b 147 -14 17 47 56 -14 z "},"ú":{"ha":415,"x_min":0,"x_max":0,"o":"m 147 -14 b 268 74 206 -14 254 29 l 279 0 l 394 0 l 394 778 l 222 778 l 222 160 b 207 142 222 150 218 142 b 193 160 197 142 193 150 l 193 778 l 17 778 l 17 150 b 147 -14 17 47 56 -14 z m 329 946 l 86 903 l 86 817 l 329 817 z "},"ü":{"ha":415,"x_min":0,"x_max":0,"o":"m 147 -14 b 268 74 206 -14 254 29 l 279 0 l 394 0 l 394 778 l 222 778 l 222 160 b 207 142 222 150 218 142 b 193 160 197 142 193 150 l 193 778 l 17 778 l 17 150 b 147 -14 17 47 56 -14 z m 38 989 l 38 821 l 185 821 l 185 989 z m 229 989 l 229 821 l 376 821 l 376 989 z "},"v":{"ha":400,"x_min":0,"x_max":0,"o":"m 3 778 l 79 0 l 322 0 l 397 778 l 228 778 l 203 203 b 197 203 203 200 199 200 l 172 778 z "},"w":{"ha":621,"x_min":0,"x_max":0,"o":"m 3 778 l 65 0 l 278 0 l 307 193 b 314 193 307 197 314 197 l 343 0 l 556 0 l 618 778 l 449 778 l 417 217 b 411 217 417 214 411 214 l 392 778 l 229 778 l 210 217 b 204 217 210 214 204 214 l 172 778 z "},"x":{"ha":392,"x_min":0,"x_max":0,"o":"m 3 778 l 39 456 b 76 414 40 432 61 414 b 76 406 82 414 82 406 b 39 361 61 406 40 383 l 3 0 l 172 0 l 190 321 b 196 326 190 324 192 326 b 201 321 200 326 201 324 l 219 0 l 389 0 l 353 361 b 315 406 351 383 331 406 b 315 414 310 406 310 414 b 353 456 331 414 351 432 l 389 778 l 219 778 l 201 490 b 196 485 201 488 200 485 b 190 490 192 485 190 488 l 172 778 z "},"y":{"ha":400,"x_min":0,"x_max":0,"o":"m 228 778 l 203 217 b 197 217 203 214 197 214 l 172 778 l 3 778 l 74 29 l 250 29 b 267 17 261 29 267 25 b 250 4 267 8 261 4 l 21 4 l 21 -150 b 200 -167 46 -156 153 -167 b 379 -10 313 -167 379 -132 b 335 111 379 40 364 82 l 397 778 z "},"z":{"ha":290,"x_min":0,"x_max":0,"o":"m 6 622 l 108 622 l 6 126 l 6 0 l 285 0 l 285 156 l 182 156 l 285 651 l 285 778 l 6 778 z "},".":{"ha":244,"x_min":0,"x_max":0,"o":"m 28 0 l 217 0 l 217 224 l 28 224 z "},",":{"ha":244,"x_min":0,"x_max":0,"o":"m 28 224 l 28 28 l 86 28 b 28 -40 86 -14 58 -40 l 28 -153 l 33 -153 b 217 63 71 -153 217 -133 l 217 224 z "},":":{"ha":244,"x_min":0,"x_max":0,"o":"m 28 488 l 217 488 l 217 711 l 28 711 z m 28 0 l 217 0 l 217 224 l 28 224 z "},";":{"ha":258,"x_min":0,"x_max":0,"o":"m 28 -40 l 28 -153 l 33 -153 b 217 63 71 -153 217 -133 l 217 224 l 28 224 l 28 28 l 86 28 b 28 -40 86 -14 58 -40 z m 28 488 l 217 488 l 217 711 l 28 711 z "},"…":{"ha":696,"x_min":0,"x_max":0,"o":"m 28 0 l 217 0 l 217 224 l 28 224 z m 250 0 l 439 0 l 439 224 l 250 224 z m 479 0 l 668 0 l 668 224 l 479 224 z "},"!":{"ha":244,"x_min":0,"x_max":0,"o":"m 217 778 l 217 989 l 28 989 l 28 778 l 56 274 l 189 274 z m 28 224 l 28 0 l 217 0 l 217 224 z "},"¡":{"ha":244,"x_min":0,"x_max":0,"o":"m 217 194 l 189 699 l 56 699 l 28 194 l 28 0 l 217 0 z m 28 749 l 217 749 l 217 972 l 28 972 z "},"?":{"ha":428,"x_min":0,"x_max":0,"o":"m 400 581 l 400 831 b 214 989 400 935 318 989 b 28 831 110 989 28 935 l 28 549 l 200 549 l 200 817 b 214 832 200 825 206 832 b 228 817 222 832 228 825 l 228 556 b 129 279 228 453 129 446 l 129 268 l 251 268 b 400 581 251 389 400 383 z m 97 0 l 286 0 l 286 224 l 97 224 z "},"¿":{"ha":428,"x_min":0,"x_max":0,"o":"m 28 392 l 28 142 b 214 -17 28 38 110 -17 b 400 142 318 -17 400 38 l 400 424 l 228 424 l 228 156 b 214 140 228 147 222 140 b 200 156 206 140 200 147 l 200 417 b 299 693 200 519 299 526 l 299 704 l 176 704 b 28 392 176 583 28 589 z m 142 972 l 142 749 l 331 749 l 331 972 z "},"·":{"ha":360,"x_min":0,"x_max":0,"o":"m 181 564 b 76 468 122 564 76 525 l 76 435 b 181 339 76 378 122 339 b 283 435 238 339 283 378 l 283 468 b 181 564 283 525 238 564 z "},"•":{"ha":513,"x_min":0,"x_max":0,"o":"m 256 629 b 83 468 160 629 83 564 l 83 415 b 256 254 83 319 160 254 b 429 415 351 254 429 319 l 429 468 b 256 629 429 564 351 629 z "},"*":{"ha":519,"x_min":0,"x_max":0,"o":"m 185 979 l 215 835 l 213 833 l 101 932 l 28 803 l 168 757 l 168 753 l 28 707 l 101 576 l 213 676 l 215 674 l 185 529 l 335 529 l 304 674 l 307 676 l 417 576 l 492 707 l 351 753 l 351 757 l 492 803 l 417 932 l 307 833 l 304 835 l 335 979 z "},"#":{"ha":601,"x_min":0,"x_max":0,"o":"m 211 0 l 243 269 l 307 269 l 275 0 l 433 0 l 465 269 l 544 269 l 561 426 l 485 426 l 503 579 l 579 579 l 596 736 l 522 736 l 550 972 l 392 972 l 364 736 l 300 736 l 328 972 l 169 972 l 142 736 l 65 736 l 49 579 l 122 579 l 104 426 l 22 426 l 6 269 l 85 269 l 53 0 z m 263 426 l 281 579 l 344 579 l 326 426 z "},"/":{"ha":400,"x_min":0,"x_max":0,"o":"m 147 -167 l 397 989 l 239 989 l -11 -167 z "},"\\":{"ha":400,"x_min":0,"x_max":0,"o":"m 253 -167 l 3 989 l 161 989 l 411 -167 z "},"-":{"ha":256,"x_min":0,"x_max":0,"o":"m 14 364 l 242 364 l 242 521 l 14 521 z "},"_":{"ha":365,"x_min":0,"x_max":0,"o":"m 14 0 l 351 0 l 351 157 l 14 157 z "},"(":{"ha":300,"x_min":0,"x_max":0,"o":"m 297 989 l 135 989 b 28 408 75 804 28 631 b 131 -167 28 192 71 19 l 292 -167 b 185 408 224 8 185 203 b 297 989 185 608 225 814 z "},")":{"ha":300,"x_min":0,"x_max":0,"o":"m 165 989 l 3 989 b 115 408 75 814 115 608 b 8 -167 115 203 76 8 l 169 -167 b 272 408 229 19 272 192 b 165 989 272 631 225 804 z "},"{":{"ha":310,"x_min":0,"x_max":0,"o":"m 222 -176 b 299 -167 276 -176 299 -167 l 299 -12 l 261 -12 b 247 1 253 -12 247 -7 l 247 317 b 150 436 247 378 204 436 b 247 556 204 436 247 493 l 247 821 b 261 835 247 829 253 835 l 299 835 l 299 989 b 222 999 299 989 276 999 b 103 881 139 999 103 960 l 103 633 b 6 514 103 571 60 514 l 6 358 b 103 239 60 358 103 300 l 103 -58 b 222 -176 103 -137 139 -176 z "},"}":{"ha":310,"x_min":0,"x_max":0,"o":"m 88 -176 b 207 -58 171 -176 207 -137 l 207 239 b 304 358 207 300 250 358 l 304 514 b 207 633 250 514 207 571 l 207 881 b 88 999 207 960 171 999 b 11 989 33 999 11 989 l 11 835 l 49 835 b 63 821 57 835 63 829 l 63 556 b 160 436 63 493 106 436 b 63 317 106 436 63 378 l 63 1 b 49 -12 63 -7 57 -12 l 11 -12 l 11 -167 b 88 -176 11 -167 33 -176 z "},"[":{"ha":283,"x_min":0,"x_max":0,"o":"m 21 -167 l 278 -167 l 278 -10 l 179 -10 l 179 832 l 278 832 l 278 989 l 21 989 z "},"]":{"ha":283,"x_min":0,"x_max":0,"o":"m 6 -167 l 263 -167 l 263 989 l 6 989 l 6 832 l 104 832 l 104 -10 l 6 -10 z "},"‚":{"ha":244,"x_min":0,"x_max":0,"o":"m 28 224 l 28 28 l 86 28 b 28 -40 86 -14 58 -40 l 28 -153 l 33 -153 b 217 63 71 -153 217 -133 l 217 224 z "},"„":{"ha":244,"x_min":0,"x_max":0,"o":"m 28 224 l 28 28 l 86 28 b 28 -40 86 -14 58 -40 l 28 -153 l 33 -153 b 217 63 71 -153 217 -133 l 217 224 z "},"“":{"ha":415,"x_min":0,"x_max":0,"o":"m 192 613 l 192 808 l 133 808 b 192 876 133 850 161 876 l 192 989 l 186 989 b 17 774 149 989 17 969 l 17 613 z m 394 613 l 394 808 l 336 808 b 394 872 336 850 364 872 l 394 978 l 389 978 b 219 774 351 978 219 969 l 219 613 z "},"”":{"ha":415,"x_min":0,"x_max":0,"o":"m 224 972 l 224 776 l 282 776 b 224 708 282 735 254 708 l 224 596 l 229 596 b 399 811 267 596 399 615 l 399 972 z m 21 972 l 21 776 l 79 776 b 21 713 79 735 51 713 l 21 607 l 26 607 b 196 811 64 607 196 615 l 196 972 z "},"‘":{"ha":208,"x_min":0,"x_max":0,"o":"m 192 613 l 192 808 l 133 808 b 192 876 133 850 161 876 l 192 989 l 186 989 b 17 774 149 989 17 969 l 17 613 z "},"’":{"ha":226,"x_min":0,"x_max":0,"o":"m 21 972 l 21 776 l 79 776 b 21 708 79 735 51 708 l 21 596 l 26 596 b 210 811 64 596 210 615 l 210 972 z "},"«":{"ha":475,"x_min":0,"x_max":0,"o":"m 313 164 l 446 164 b 274 426 446 344 292 426 b 446 681 292 426 446 507 l 313 681 l 201 460 l 201 386 z m 99 169 l 225 169 b 60 432 225 350 78 432 b 225 686 78 432 225 513 l 99 686 l 6 500 l 6 356 z "},"»":{"ha":475,"x_min":0,"x_max":0,"o":"m 29 164 l 163 164 l 274 386 l 274 460 l 163 681 l 29 681 b 201 426 29 507 183 426 b 29 164 183 426 29 344 z m 250 169 l 376 169 l 469 356 l 469 500 l 376 686 l 250 686 b 415 432 250 513 397 432 b 250 169 397 432 250 350 z "},"‹":{"ha":279,"x_min":0,"x_max":0,"o":"m 117 164 l 250 164 b 78 426 250 344 96 426 b 250 681 96 426 250 507 l 117 681 l 6 460 l 6 386 z "},"›":{"ha":279,"x_min":0,"x_max":0,"o":"m 29 164 l 163 164 l 274 386 l 274 460 l 163 681 l 29 681 b 201 426 29 507 183 426 b 29 164 183 426 29 344 z "},"\"":{"ha":378,"x_min":0,"x_max":0,"o":"m 3 972 l 174 972 l 160 635 l 17 635 z m 197 972 l 375 972 l 347 635 l 197 635 z "},"'":{"ha":176,"x_min":0,"x_max":0,"o":"m 3 972 l 174 972 l 160 635 l 17 635 z "},"@":{"ha":661,"x_min":0,"x_max":0,"o":"m 513 778 l 379 778 l 363 735 b 265 792 363 735 333 792 b 149 636 193 792 149 739 l 149 174 b 285 -14 149 71 182 -14 b 396 71 353 -14 386 33 b 518 0 435 21 471 0 b 644 135 621 0 644 65 l 644 706 b 457 908 644 843 582 908 l 232 908 b 17 678 107 908 17 825 l 17 82 b 251 -139 17 -43 99 -139 l 546 -137 l 546 -37 l 240 -37 b 115 97 163 -37 115 19 l 115 706 b 226 817 115 769 163 817 l 463 817 b 546 733 514 817 546 783 l 546 142 b 532 128 546 133 540 128 b 517 144 524 128 518 131 l 517 153 z m 335 660 l 347 660 l 347 160 b 333 142 347 149 343 142 b 319 160 324 142 319 149 l 319 642 b 335 660 319 653 326 660 z "},"&":{"ha":471,"x_min":0,"x_max":0,"o":"m 228 736 l 228 611 b 200 643 217 611 200 617 l 200 817 b 214 832 200 825 206 832 b 228 817 222 832 228 825 l 228 778 l 400 778 l 400 831 b 214 989 400 935 317 989 b 28 831 111 989 28 935 l 28 653 b 79 536 28 579 69 544 b 81 533 79 536 81 535 b 79 531 81 532 79 531 b 28 414 69 522 28 488 l 28 142 b 158 -17 28 39 74 -17 b 251 35 201 -17 236 8 b 375 -17 278 1 322 -17 b 465 0 443 -17 465 0 l 465 140 l 414 140 b 400 154 406 140 400 146 l 400 456 l 465 456 l 465 611 l 400 611 l 400 736 z m 200 156 l 200 440 b 214 456 200 449 203 456 l 228 456 l 228 156 b 214 140 228 147 222 140 b 200 156 206 140 200 147 z "},"©":{"ha":551,"x_min":0,"x_max":0,"o":"m 276 825 b 36 608 149 825 36 747 l 36 390 b 276 181 36 260 149 181 b 515 390 401 181 515 260 l 515 608 b 276 825 515 747 401 825 z m 276 274 b 131 400 190 274 131 331 l 131 610 b 276 735 131 678 190 735 b 422 610 360 735 422 678 l 422 400 b 276 274 422 331 360 274 z m 290 482 l 290 414 b 276 400 290 406 283 400 b 263 414 269 400 263 406 l 263 594 b 276 608 263 603 269 608 b 290 594 283 608 290 603 l 290 533 l 376 533 l 376 586 b 276 690 376 663 326 690 b 176 594 226 690 176 663 l 176 414 b 276 318 176 346 226 318 b 376 422 326 318 376 346 l 376 482 z "},"®":{"ha":551,"x_min":0,"x_max":0,"o":"m 276 825 b 36 608 149 825 36 747 l 36 390 b 276 181 36 260 149 181 b 515 390 401 181 515 260 l 515 608 b 276 825 515 747 401 825 z m 276 274 b 131 400 190 274 131 331 l 131 610 b 276 735 131 678 190 735 b 422 610 360 735 422 678 l 422 400 b 276 274 422 331 360 274 z m 378 342 l 356 450 b 344 464 354 460 350 464 l 344 465 b 372 506 351 465 372 479 l 372 600 b 282 676 372 657 335 676 l 181 676 l 181 342 l 264 342 l 264 439 b 268 443 264 440 265 443 l 275 443 b 281 439 279 443 281 440 l 297 342 z m 289 599 l 289 504 b 281 496 289 499 286 496 l 264 496 l 264 607 l 281 607 b 289 599 286 607 289 603 z "},"™":{"ha":556,"x_min":0,"x_max":0,"o":"m 418 972 l 374 747 b 371 744 374 746 372 744 b 368 747 369 744 368 746 l 324 972 l 17 972 l 17 886 l 64 886 l 64 525 l 158 525 l 158 886 l 211 886 l 211 525 l 301 525 l 301 706 b 303 708 301 707 301 708 b 304 706 304 708 304 707 l 342 525 l 400 525 l 438 706 b 439 708 438 707 438 708 b 440 706 440 708 440 707 l 440 525 l 531 525 l 531 972 z "},"°":{"ha":344,"x_min":0,"x_max":0,"o":"m 172 989 b 21 832 76 989 21 936 l 21 740 b 172 583 21 636 76 583 b 324 754 268 583 324 636 l 324 818 b 172 989 324 936 268 989 z m 186 851 l 186 721 b 172 703 186 711 182 703 b 158 721 163 703 158 711 l 158 851 b 172 869 158 861 163 869 b 186 851 182 869 186 861 z "},"|":{"ha":199,"x_min":0,"x_max":0,"o":"m 182 -167 l 17 -167 l 17 989 l 182 989 z "},"¦":{"ha":199,"x_min":0,"x_max":0,"o":"m 182 539 l 17 539 l 17 989 l 182 989 z m 182 -167 l 17 -167 l 17 406 l 182 406 z "},"†":{"ha":460,"x_min":0,"x_max":0,"o":"m 313 289 l 313 621 l 432 621 l 432 778 l 313 778 l 313 989 l 147 989 l 147 778 l 28 778 l 28 621 l 147 621 l 147 289 l 224 0 l 236 0 z "},"‡":{"ha":460,"x_min":0,"x_max":0,"o":"m 313 289 l 313 426 l 432 426 l 432 583 l 313 583 l 313 621 l 432 621 l 432 778 l 313 778 l 313 989 l 147 989 l 147 778 l 28 778 l 28 621 l 147 621 l 147 583 l 28 583 l 28 426 l 147 426 l 147 289 l 224 0 l 236 0 z "},"¢":{"ha":392,"x_min":0,"x_max":0,"o":"m 208 421 l 210 253 b 196 235 210 243 206 235 b 182 253 186 235 182 243 l 182 711 b 196 729 182 721 186 729 b 210 711 206 729 210 721 l 208 557 l 375 557 l 375 683 b 282 868 375 782 342 842 l 282 1014 l 110 1014 l 110 869 b 17 700 50 843 17 786 l 17 264 b 110 94 17 178 50 121 l 110 -56 l 282 -56 l 282 96 b 375 281 342 122 375 182 l 375 421 z "},"$":{"ha":394,"x_min":0,"x_max":0,"o":"m 110 -56 l 282 -56 l 282 39 b 383 183 343 63 383 111 l 383 331 b 233 586 383 492 292 543 b 182 653 204 607 182 625 l 182 776 b 197 790 182 785 189 790 b 213 776 206 790 213 785 l 213 633 l 383 633 l 383 789 b 282 933 383 863 342 911 l 282 1014 l 110 1014 l 110 932 b 11 789 51 908 11 860 l 11 682 b 139 447 11 536 82 489 b 211 336 178 418 211 390 l 211 196 b 197 182 211 188 206 182 b 183 196 189 182 183 188 l 183 364 l 11 364 l 11 183 b 110 40 11 111 50 63 z "},"€":{"ha":433,"x_min":0,"x_max":0,"o":"m 231 989 b 44 831 128 989 44 933 l 44 657 l 14 657 l 14 532 l 44 532 l 44 482 l 14 482 l 14 356 l 44 356 l 44 142 b 231 -17 44 39 128 -17 b 417 142 333 -17 417 39 l 417 292 l 244 292 l 244 153 b 231 139 244 144 239 139 b 217 153 224 139 217 144 l 217 356 l 347 356 l 347 482 l 217 482 l 217 532 l 347 532 l 347 657 l 217 657 l 217 819 b 231 833 217 828 224 833 b 244 819 239 833 244 828 l 244 718 l 417 718 l 417 831 b 231 989 417 933 333 989 z "},"£":{"ha":354,"x_min":0,"x_max":0,"o":"m 335 157 l 192 157 b 254 363 192 179 236 268 l 331 363 l 331 519 l 254 519 b 192 749 236 621 192 681 b 272 833 192 808 221 833 b 331 817 296 833 322 821 l 331 972 b 232 989 331 972 294 989 b 19 789 103 989 19 928 b 81 519 19 658 61 606 l 21 519 l 21 363 l 83 363 b 21 99 67 267 21 204 l 21 0 l 335 0 z "},"¥":{"ha":392,"x_min":0,"x_max":0,"o":"m 192 558 l 175 972 l 3 972 l 31 576 b 106 488 35 508 69 492 b 110 479 108 486 110 483 l 17 479 l 17 322 l 110 322 l 110 289 l 17 289 l 17 132 l 110 132 l 110 0 l 282 0 l 282 132 l 376 132 l 376 289 l 282 289 l 282 322 l 376 322 l 376 479 l 282 479 b 286 488 282 483 283 486 b 361 576 322 492 357 508 l 389 972 l 217 972 l 200 558 b 196 554 200 556 199 554 b 192 558 193 554 192 556 z "},"+":{"ha":533,"x_min":0,"x_max":0,"o":"m 353 167 l 353 364 l 519 364 l 519 521 l 353 521 l 353 708 l 181 708 l 181 521 l 14 521 l 14 364 l 181 364 l 181 167 z "},"−":{"ha":450,"x_min":0,"x_max":0,"o":"m 14 364 l 436 364 l 436 521 l 14 521 z "},"×":{"ha":536,"x_min":0,"x_max":0,"o":"m 14 307 l 136 185 l 267 315 l 397 185 l 519 307 l 389 438 l 519 568 l 397 690 l 267 560 l 136 690 l 14 568 l 144 438 z "},"÷":{"ha":450,"x_min":0,"x_max":0,"o":"m 14 364 l 436 364 l 436 521 l 14 521 z m 222 764 b 118 668 164 764 118 725 l 118 649 b 222 553 118 592 164 553 b 325 649 279 553 325 592 l 325 668 b 222 764 325 725 279 764 z m 222 328 b 118 232 164 328 118 289 l 118 213 b 222 117 118 156 164 117 b 325 213 279 117 325 156 l 325 232 b 222 328 325 289 279 328 z "},"=":{"ha":450,"x_min":0,"x_max":0,"o":"m 14 514 l 436 514 l 436 671 l 14 671 z m 14 214 l 436 214 l 436 371 l 14 371 z "},">":{"ha":385,"x_min":0,"x_max":0,"o":"m 11 692 l 11 532 l 218 443 l 11 353 l 11 193 l 379 372 l 379 513 z "},"<":{"ha":385,"x_min":0,"x_max":0,"o":"m 374 692 l 6 513 l 6 372 l 374 193 l 374 353 l 167 443 l 374 532 z "},"%":{"ha":668,"x_min":0,"x_max":0,"o":"m 186 0 l 28 0 l 486 989 l 644 989 z m 172 989 b 19 832 76 989 19 938 l 19 711 b 172 554 19 606 76 554 b 325 711 268 554 325 606 l 325 832 b 172 989 325 938 268 989 z m 185 867 l 185 674 b 172 660 185 665 182 660 b 160 674 163 660 160 665 l 160 867 b 172 879 160 874 163 879 b 185 867 182 879 185 874 z m 496 421 b 343 264 400 421 343 369 l 343 143 b 496 -14 343 38 400 -14 b 649 143 592 -14 649 38 l 649 264 b 496 421 649 369 592 421 z m 508 299 l 508 106 b 496 92 508 97 506 92 b 483 106 486 92 483 97 l 483 299 b 496 311 483 306 486 311 b 508 299 506 311 508 306 z "},"↑":{"ha":792,"x_min":0,"x_max":0,"o":"m 21 546 l 133 433 l 311 643 l 318 640 l 318 71 l 472 71 l 472 640 l 479 643 l 658 435 l 771 547 l 411 918 l 379 918 z "},"↗":{"ha":706,"x_min":0,"x_max":0,"o":"m 21 250 l 129 140 l 532 543 l 539 540 l 518 267 l 678 267 l 685 783 l 663 806 l 146 796 l 146 638 l 421 660 l 424 653 z "},"→":{"ha":889,"x_min":0,"x_max":0,"o":"m 496 847 l 383 735 l 593 557 l 590 550 l 21 550 l 21 396 l 590 396 l 593 389 l 385 210 l 497 97 l 868 457 l 868 489 z "},"↘":{"ha":706,"x_min":0,"x_max":0,"o":"m 129 818 l 21 708 l 424 306 l 419 300 l 146 319 l 146 161 l 663 153 l 685 175 l 675 692 l 517 692 l 539 418 l 532 414 z "},"↓":{"ha":792,"x_min":0,"x_max":0,"o":"m 21 443 l 379 71 l 411 71 l 771 442 l 658 554 l 479 346 l 472 349 l 472 918 l 318 918 l 318 349 l 311 346 l 133 556 z "},"↙":{"ha":707,"x_min":0,"x_max":0,"o":"m 686 717 l 578 826 l 174 424 l 168 426 l 189 700 l 29 700 l 21 185 l 44 161 l 561 171 l 561 331 l 286 308 l 283 314 z "},"←":{"ha":889,"x_min":0,"x_max":0,"o":"m 393 97 l 506 210 l 296 388 l 299 394 l 868 394 l 868 549 l 299 549 l 296 556 l 504 735 l 392 847 l 21 488 l 21 456 z "},"↖":{"ha":707,"x_min":0,"x_max":0,"o":"m 576 140 l 686 249 l 283 651 l 286 658 l 560 638 l 560 797 l 43 804 l 21 782 l 31 265 l 189 265 l 167 540 l 174 543 z "},"¨":{"ha":419,"x_min":0,"x_max":0,"o":"m 26 972 l 26 804 l 174 804 l 174 972 z m 218 972 l 218 804 l 365 804 l 365 972 z "},"´":{"ha":278,"x_min":0,"x_max":0,"o":"m 260 946 l 17 903 l 17 817 l 260 817 z "},"˜":{"ha":429,"x_min":0,"x_max":0,"o":"m 275 807 b 406 974 375 807 406 897 l 308 974 b 276 922 308 942 300 922 b 158 986 244 922 233 986 b 28 819 58 986 28 896 l 125 819 b 157 871 125 851 133 871 b 275 807 189 871 200 807 z "},"¸":{"ha":207,"x_min":0,"x_max":0,"o":"m 133 -11 l 135 3 l 53 3 l 46 -21 l 46 -75 l 89 -74 b 125 -81 119 -74 125 -74 b 83 -87 125 -89 115 -87 b 21 -83 56 -87 24 -83 l 21 -160 b 89 -167 36 -162 56 -167 b 201 -79 146 -167 201 -154 b 133 -11 201 -25 167 -11 z "}}}
